<mxfile host="app.diagrams.net" modified="2023-07-20T17:18:20.719Z" agent="Mozilla/5.0 (X11; Linux x86_64) AppleWebKit/537.36 (KHTML, like Gecko) Chrome/108.0.0.0 Safari/537.36" etag="F3FKR87jsGq6jkKNK_qc" version="21.6.3" type="device">
  <diagram name="Page-1" id="Oem-fqC2suBWHF0hACf9">
    <mxGraphModel dx="2718" dy="982" grid="1" gridSize="10" guides="1" tooltips="1" connect="1" arrows="1" fold="1" page="1" pageScale="1" pageWidth="850" pageHeight="1100" math="0" shadow="0">
      <root>
        <mxCell id="0" />
        <mxCell id="1" parent="0" />
        <mxCell id="J4dkuud4yuOX-hljs6oN-47" value="" style="group;strokeWidth=2;" vertex="1" connectable="0" parent="1">
          <mxGeometry x="359" y="340" width="376" height="280" as="geometry" />
        </mxCell>
        <mxCell id="J4dkuud4yuOX-hljs6oN-48" value="" style="group;strokeWidth=2;" vertex="1" connectable="0" parent="J4dkuud4yuOX-hljs6oN-47">
          <mxGeometry x="70" width="170" height="60" as="geometry" />
        </mxCell>
        <mxCell id="J4dkuud4yuOX-hljs6oN-49" value="" style="endArrow=classic;html=1;rounded=0;endFill=1;strokeWidth=2;" edge="1" parent="J4dkuud4yuOX-hljs6oN-48">
          <mxGeometry width="50" height="50" relative="1" as="geometry">
            <mxPoint x="60" as="sourcePoint" />
            <mxPoint x="90" as="targetPoint" />
          </mxGeometry>
        </mxCell>
        <mxCell id="J4dkuud4yuOX-hljs6oN-50" value="" style="endArrow=none;html=1;rounded=0;strokeWidth=2;" edge="1" parent="J4dkuud4yuOX-hljs6oN-48">
          <mxGeometry width="50" height="50" relative="1" as="geometry">
            <mxPoint x="89" as="sourcePoint" />
            <mxPoint x="109" as="targetPoint" />
          </mxGeometry>
        </mxCell>
        <mxCell id="J4dkuud4yuOX-hljs6oN-51" value="" style="endArrow=none;html=1;rounded=0;strokeWidth=2;" edge="1" parent="J4dkuud4yuOX-hljs6oN-48">
          <mxGeometry width="50" height="50" relative="1" as="geometry">
            <mxPoint x="60" y="60" as="sourcePoint" />
            <mxPoint x="60" as="targetPoint" />
          </mxGeometry>
        </mxCell>
        <mxCell id="J4dkuud4yuOX-hljs6oN-52" value="" style="endArrow=none;html=1;rounded=0;strokeWidth=2;" edge="1" parent="J4dkuud4yuOX-hljs6oN-48">
          <mxGeometry width="50" height="50" relative="1" as="geometry">
            <mxPoint x="109" y="60" as="sourcePoint" />
            <mxPoint x="109" as="targetPoint" />
          </mxGeometry>
        </mxCell>
        <mxCell id="J4dkuud4yuOX-hljs6oN-53" value="" style="endArrow=none;html=1;rounded=0;strokeWidth=2;" edge="1" parent="J4dkuud4yuOX-hljs6oN-48">
          <mxGeometry width="50" height="50" relative="1" as="geometry">
            <mxPoint y="60" as="sourcePoint" />
            <mxPoint x="60" y="60" as="targetPoint" />
          </mxGeometry>
        </mxCell>
        <mxCell id="J4dkuud4yuOX-hljs6oN-54" value="" style="endArrow=none;html=1;rounded=0;strokeWidth=2;" edge="1" parent="J4dkuud4yuOX-hljs6oN-48">
          <mxGeometry width="50" height="50" relative="1" as="geometry">
            <mxPoint x="110" y="60" as="sourcePoint" />
            <mxPoint x="170" y="60" as="targetPoint" />
          </mxGeometry>
        </mxCell>
        <mxCell id="J4dkuud4yuOX-hljs6oN-55" value="" style="rounded=1;whiteSpace=wrap;html=1;fillColor=none;strokeWidth=2;" vertex="1" parent="J4dkuud4yuOX-hljs6oN-48">
          <mxGeometry x="30" y="-70" width="110" height="100" as="geometry" />
        </mxCell>
        <mxCell id="J4dkuud4yuOX-hljs6oN-56" value="" style="group;strokeWidth=2;" vertex="1" connectable="0" parent="J4dkuud4yuOX-hljs6oN-47">
          <mxGeometry x="80" y="120" width="160" height="100" as="geometry" />
        </mxCell>
        <mxCell id="J4dkuud4yuOX-hljs6oN-57" value="" style="rounded=1;whiteSpace=wrap;html=1;fillColor=none;strokeWidth=2;" vertex="1" parent="J4dkuud4yuOX-hljs6oN-56">
          <mxGeometry x="50" width="110" height="100" as="geometry" />
        </mxCell>
        <mxCell id="J4dkuud4yuOX-hljs6oN-58" value="" style="endArrow=none;html=1;rounded=0;strokeWidth=2;" edge="1" parent="J4dkuud4yuOX-hljs6oN-56">
          <mxGeometry width="50" height="50" relative="1" as="geometry">
            <mxPoint y="20" as="sourcePoint" />
            <mxPoint x="90" y="20" as="targetPoint" />
          </mxGeometry>
        </mxCell>
        <mxCell id="J4dkuud4yuOX-hljs6oN-59" value="" style="endArrow=none;html=1;rounded=0;strokeWidth=2;" edge="1" parent="J4dkuud4yuOX-hljs6oN-56">
          <mxGeometry width="50" height="50" relative="1" as="geometry">
            <mxPoint y="80" as="sourcePoint" />
            <mxPoint x="90" y="80" as="targetPoint" />
          </mxGeometry>
        </mxCell>
        <mxCell id="J4dkuud4yuOX-hljs6oN-60" value="&lt;font style=&quot;font-size: 24px;&quot;&gt;+&lt;/font&gt;" style="text;html=1;strokeColor=none;fillColor=none;align=center;verticalAlign=middle;whiteSpace=wrap;rounded=0;strokeWidth=2;" vertex="1" parent="J4dkuud4yuOX-hljs6oN-56">
          <mxGeometry x="82" y="5" width="60" height="30" as="geometry" />
        </mxCell>
        <mxCell id="J4dkuud4yuOX-hljs6oN-61" value="&lt;font style=&quot;font-size: 24px;&quot;&gt;_&lt;/font&gt;" style="text;html=1;strokeColor=none;fillColor=none;align=center;verticalAlign=middle;whiteSpace=wrap;rounded=0;strokeWidth=2;" vertex="1" parent="J4dkuud4yuOX-hljs6oN-56">
          <mxGeometry x="82" y="53" width="60" height="30" as="geometry" />
        </mxCell>
        <mxCell id="J4dkuud4yuOX-hljs6oN-62" value="" style="group;strokeWidth=2;" vertex="1" connectable="0" parent="J4dkuud4yuOX-hljs6oN-47">
          <mxGeometry x="240" y="45" width="80" height="30" as="geometry" />
        </mxCell>
        <mxCell id="J4dkuud4yuOX-hljs6oN-63" value="" style="ellipse;whiteSpace=wrap;html=1;aspect=fixed;strokeWidth=2;" vertex="1" parent="J4dkuud4yuOX-hljs6oN-62">
          <mxGeometry x="50" width="30" height="30" as="geometry" />
        </mxCell>
        <mxCell id="J4dkuud4yuOX-hljs6oN-64" value="" style="endArrow=none;html=1;rounded=0;strokeWidth=2;" edge="1" parent="J4dkuud4yuOX-hljs6oN-62">
          <mxGeometry width="50" height="50" relative="1" as="geometry">
            <mxPoint y="15" as="sourcePoint" />
            <mxPoint x="50" y="15" as="targetPoint" />
          </mxGeometry>
        </mxCell>
        <mxCell id="J4dkuud4yuOX-hljs6oN-65" value="" style="group;strokeWidth=2;" vertex="1" connectable="0" parent="J4dkuud4yuOX-hljs6oN-47">
          <mxGeometry y="125" width="80" height="30" as="geometry" />
        </mxCell>
        <mxCell id="J4dkuud4yuOX-hljs6oN-66" value="" style="ellipse;whiteSpace=wrap;html=1;aspect=fixed;strokeWidth=2;" vertex="1" parent="J4dkuud4yuOX-hljs6oN-65">
          <mxGeometry width="30" height="30" as="geometry" />
        </mxCell>
        <mxCell id="J4dkuud4yuOX-hljs6oN-67" value="" style="endArrow=none;html=1;rounded=0;strokeWidth=2;" edge="1" parent="J4dkuud4yuOX-hljs6oN-65">
          <mxGeometry width="50" height="50" relative="1" as="geometry">
            <mxPoint x="30" y="15" as="sourcePoint" />
            <mxPoint x="80" y="15" as="targetPoint" />
          </mxGeometry>
        </mxCell>
        <mxCell id="J4dkuud4yuOX-hljs6oN-68" value="" style="endArrow=none;html=1;rounded=0;strokeWidth=2;" edge="1" parent="J4dkuud4yuOX-hljs6oN-47">
          <mxGeometry width="50" height="50" relative="1" as="geometry">
            <mxPoint x="70" y="140" as="sourcePoint" />
            <mxPoint x="70" y="60" as="targetPoint" />
          </mxGeometry>
        </mxCell>
        <mxCell id="J4dkuud4yuOX-hljs6oN-69" value="" style="endArrow=none;html=1;rounded=0;strokeWidth=2;" edge="1" parent="J4dkuud4yuOX-hljs6oN-47">
          <mxGeometry width="50" height="50" relative="1" as="geometry">
            <mxPoint x="80" y="280" as="sourcePoint" />
            <mxPoint x="80" y="200" as="targetPoint" />
          </mxGeometry>
        </mxCell>
        <mxCell id="J4dkuud4yuOX-hljs6oN-159" value="" style="group;strokeWidth=2;" vertex="1" connectable="0" parent="J4dkuud4yuOX-hljs6oN-47">
          <mxGeometry x="240" y="155" width="136" height="30" as="geometry" />
        </mxCell>
        <mxCell id="J4dkuud4yuOX-hljs6oN-160" value="" style="whiteSpace=wrap;html=1;aspect=fixed;fillColor=#000000;strokeWidth=2;" vertex="1" parent="J4dkuud4yuOX-hljs6oN-159">
          <mxGeometry y="6" width="20" height="20" as="geometry" />
        </mxCell>
        <mxCell id="J4dkuud4yuOX-hljs6oN-161" value="" style="endArrow=none;html=1;rounded=0;strokeWidth=2;" edge="1" parent="J4dkuud4yuOX-hljs6oN-159">
          <mxGeometry width="50" height="50" relative="1" as="geometry">
            <mxPoint x="19" y="15" as="sourcePoint" />
            <mxPoint x="66" y="15" as="targetPoint" />
          </mxGeometry>
        </mxCell>
        <mxCell id="J4dkuud4yuOX-hljs6oN-162" value="" style="shape=offPageConnector;whiteSpace=wrap;html=1;direction=north;size=0.2;fillColor=none;container=0;strokeWidth=2;" vertex="1" parent="J4dkuud4yuOX-hljs6oN-159">
          <mxGeometry x="66" width="70" height="30" as="geometry" />
        </mxCell>
        <mxCell id="J4dkuud4yuOX-hljs6oN-70" value="" style="group;strokeWidth=2;" vertex="1" connectable="0" parent="1">
          <mxGeometry x="758" y="340" width="376" height="280" as="geometry" />
        </mxCell>
        <mxCell id="J4dkuud4yuOX-hljs6oN-71" value="" style="group;strokeWidth=2;" vertex="1" connectable="0" parent="J4dkuud4yuOX-hljs6oN-70">
          <mxGeometry x="70" width="170" height="60" as="geometry" />
        </mxCell>
        <mxCell id="J4dkuud4yuOX-hljs6oN-72" value="" style="endArrow=classic;html=1;rounded=0;endFill=1;strokeWidth=2;" edge="1" parent="J4dkuud4yuOX-hljs6oN-71">
          <mxGeometry width="50" height="50" relative="1" as="geometry">
            <mxPoint x="60" as="sourcePoint" />
            <mxPoint x="90" as="targetPoint" />
          </mxGeometry>
        </mxCell>
        <mxCell id="J4dkuud4yuOX-hljs6oN-73" value="" style="endArrow=none;html=1;rounded=0;strokeWidth=2;" edge="1" parent="J4dkuud4yuOX-hljs6oN-71">
          <mxGeometry width="50" height="50" relative="1" as="geometry">
            <mxPoint x="89" as="sourcePoint" />
            <mxPoint x="109" as="targetPoint" />
          </mxGeometry>
        </mxCell>
        <mxCell id="J4dkuud4yuOX-hljs6oN-74" value="" style="endArrow=none;html=1;rounded=0;strokeWidth=2;" edge="1" parent="J4dkuud4yuOX-hljs6oN-71">
          <mxGeometry width="50" height="50" relative="1" as="geometry">
            <mxPoint x="60" y="60" as="sourcePoint" />
            <mxPoint x="60" as="targetPoint" />
          </mxGeometry>
        </mxCell>
        <mxCell id="J4dkuud4yuOX-hljs6oN-75" value="" style="endArrow=none;html=1;rounded=0;strokeWidth=2;" edge="1" parent="J4dkuud4yuOX-hljs6oN-71">
          <mxGeometry width="50" height="50" relative="1" as="geometry">
            <mxPoint x="109" y="60" as="sourcePoint" />
            <mxPoint x="109" as="targetPoint" />
          </mxGeometry>
        </mxCell>
        <mxCell id="J4dkuud4yuOX-hljs6oN-76" value="" style="endArrow=none;html=1;rounded=0;strokeWidth=2;" edge="1" parent="J4dkuud4yuOX-hljs6oN-71">
          <mxGeometry width="50" height="50" relative="1" as="geometry">
            <mxPoint y="60" as="sourcePoint" />
            <mxPoint x="60" y="60" as="targetPoint" />
          </mxGeometry>
        </mxCell>
        <mxCell id="J4dkuud4yuOX-hljs6oN-77" value="" style="endArrow=none;html=1;rounded=0;strokeWidth=2;" edge="1" parent="J4dkuud4yuOX-hljs6oN-71">
          <mxGeometry width="50" height="50" relative="1" as="geometry">
            <mxPoint x="110" y="60" as="sourcePoint" />
            <mxPoint x="170" y="60" as="targetPoint" />
          </mxGeometry>
        </mxCell>
        <mxCell id="J4dkuud4yuOX-hljs6oN-78" value="" style="rounded=1;whiteSpace=wrap;html=1;fillColor=none;strokeWidth=2;" vertex="1" parent="J4dkuud4yuOX-hljs6oN-71">
          <mxGeometry x="30" y="-70" width="110" height="100" as="geometry" />
        </mxCell>
        <mxCell id="J4dkuud4yuOX-hljs6oN-79" value="" style="group;strokeWidth=2;" vertex="1" connectable="0" parent="J4dkuud4yuOX-hljs6oN-70">
          <mxGeometry x="80" y="120" width="160" height="100" as="geometry" />
        </mxCell>
        <mxCell id="J4dkuud4yuOX-hljs6oN-80" value="" style="rounded=1;whiteSpace=wrap;html=1;fillColor=none;strokeWidth=2;" vertex="1" parent="J4dkuud4yuOX-hljs6oN-79">
          <mxGeometry x="50" width="110" height="100" as="geometry" />
        </mxCell>
        <mxCell id="J4dkuud4yuOX-hljs6oN-81" value="" style="endArrow=none;html=1;rounded=0;strokeWidth=2;" edge="1" parent="J4dkuud4yuOX-hljs6oN-79">
          <mxGeometry width="50" height="50" relative="1" as="geometry">
            <mxPoint y="20" as="sourcePoint" />
            <mxPoint x="90" y="20" as="targetPoint" />
          </mxGeometry>
        </mxCell>
        <mxCell id="J4dkuud4yuOX-hljs6oN-82" value="" style="endArrow=none;html=1;rounded=0;strokeWidth=2;" edge="1" parent="J4dkuud4yuOX-hljs6oN-79">
          <mxGeometry width="50" height="50" relative="1" as="geometry">
            <mxPoint y="80" as="sourcePoint" />
            <mxPoint x="90" y="80" as="targetPoint" />
          </mxGeometry>
        </mxCell>
        <mxCell id="J4dkuud4yuOX-hljs6oN-83" value="&lt;font style=&quot;font-size: 24px;&quot;&gt;+&lt;/font&gt;" style="text;html=1;strokeColor=none;fillColor=none;align=center;verticalAlign=middle;whiteSpace=wrap;rounded=0;strokeWidth=2;" vertex="1" parent="J4dkuud4yuOX-hljs6oN-79">
          <mxGeometry x="82" y="5" width="60" height="30" as="geometry" />
        </mxCell>
        <mxCell id="J4dkuud4yuOX-hljs6oN-84" value="&lt;font style=&quot;font-size: 24px;&quot;&gt;_&lt;/font&gt;" style="text;html=1;strokeColor=none;fillColor=none;align=center;verticalAlign=middle;whiteSpace=wrap;rounded=0;strokeWidth=2;" vertex="1" parent="J4dkuud4yuOX-hljs6oN-79">
          <mxGeometry x="82" y="53" width="60" height="30" as="geometry" />
        </mxCell>
        <mxCell id="J4dkuud4yuOX-hljs6oN-85" value="" style="group;strokeWidth=2;" vertex="1" connectable="0" parent="J4dkuud4yuOX-hljs6oN-70">
          <mxGeometry x="240" y="45" width="80" height="30" as="geometry" />
        </mxCell>
        <mxCell id="J4dkuud4yuOX-hljs6oN-86" value="" style="ellipse;whiteSpace=wrap;html=1;aspect=fixed;strokeWidth=2;" vertex="1" parent="J4dkuud4yuOX-hljs6oN-85">
          <mxGeometry x="50" width="30" height="30" as="geometry" />
        </mxCell>
        <mxCell id="J4dkuud4yuOX-hljs6oN-87" value="" style="endArrow=none;html=1;rounded=0;strokeWidth=2;" edge="1" parent="J4dkuud4yuOX-hljs6oN-85">
          <mxGeometry width="50" height="50" relative="1" as="geometry">
            <mxPoint y="15" as="sourcePoint" />
            <mxPoint x="50" y="15" as="targetPoint" />
          </mxGeometry>
        </mxCell>
        <mxCell id="J4dkuud4yuOX-hljs6oN-88" value="" style="group;strokeWidth=2;" vertex="1" connectable="0" parent="J4dkuud4yuOX-hljs6oN-70">
          <mxGeometry y="125" width="80" height="30" as="geometry" />
        </mxCell>
        <mxCell id="J4dkuud4yuOX-hljs6oN-89" value="" style="ellipse;whiteSpace=wrap;html=1;aspect=fixed;strokeWidth=2;" vertex="1" parent="J4dkuud4yuOX-hljs6oN-88">
          <mxGeometry width="30" height="30" as="geometry" />
        </mxCell>
        <mxCell id="J4dkuud4yuOX-hljs6oN-90" value="" style="endArrow=none;html=1;rounded=0;strokeWidth=2;" edge="1" parent="J4dkuud4yuOX-hljs6oN-88">
          <mxGeometry width="50" height="50" relative="1" as="geometry">
            <mxPoint x="30" y="15" as="sourcePoint" />
            <mxPoint x="80" y="15" as="targetPoint" />
          </mxGeometry>
        </mxCell>
        <mxCell id="J4dkuud4yuOX-hljs6oN-91" value="" style="endArrow=none;html=1;rounded=0;strokeWidth=2;" edge="1" parent="J4dkuud4yuOX-hljs6oN-70">
          <mxGeometry width="50" height="50" relative="1" as="geometry">
            <mxPoint x="70" y="140" as="sourcePoint" />
            <mxPoint x="70" y="60" as="targetPoint" />
          </mxGeometry>
        </mxCell>
        <mxCell id="J4dkuud4yuOX-hljs6oN-92" value="" style="endArrow=none;html=1;rounded=0;strokeWidth=2;" edge="1" parent="J4dkuud4yuOX-hljs6oN-70">
          <mxGeometry width="50" height="50" relative="1" as="geometry">
            <mxPoint x="80" y="280" as="sourcePoint" />
            <mxPoint x="80" y="200" as="targetPoint" />
          </mxGeometry>
        </mxCell>
        <mxCell id="J4dkuud4yuOX-hljs6oN-163" value="" style="group;strokeWidth=2;" vertex="1" connectable="0" parent="J4dkuud4yuOX-hljs6oN-70">
          <mxGeometry x="240" y="155" width="136" height="30" as="geometry" />
        </mxCell>
        <mxCell id="J4dkuud4yuOX-hljs6oN-164" value="" style="whiteSpace=wrap;html=1;aspect=fixed;fillColor=#000000;strokeWidth=2;" vertex="1" parent="J4dkuud4yuOX-hljs6oN-163">
          <mxGeometry y="6" width="20" height="20" as="geometry" />
        </mxCell>
        <mxCell id="J4dkuud4yuOX-hljs6oN-165" value="" style="endArrow=none;html=1;rounded=0;strokeWidth=2;" edge="1" parent="J4dkuud4yuOX-hljs6oN-163">
          <mxGeometry width="50" height="50" relative="1" as="geometry">
            <mxPoint x="19" y="15" as="sourcePoint" />
            <mxPoint x="66" y="15" as="targetPoint" />
          </mxGeometry>
        </mxCell>
        <mxCell id="J4dkuud4yuOX-hljs6oN-166" value="" style="shape=offPageConnector;whiteSpace=wrap;html=1;direction=north;size=0.2;fillColor=none;container=0;strokeWidth=2;" vertex="1" parent="J4dkuud4yuOX-hljs6oN-163">
          <mxGeometry x="66" width="70" height="30" as="geometry" />
        </mxCell>
        <mxCell id="J4dkuud4yuOX-hljs6oN-93" value="" style="endArrow=none;html=1;rounded=0;strokeWidth=2;" edge="1" parent="1">
          <mxGeometry width="50" height="50" relative="1" as="geometry">
            <mxPoint x="40" y="620" as="sourcePoint" />
            <mxPoint x="838" y="620" as="targetPoint" />
          </mxGeometry>
        </mxCell>
        <mxCell id="J4dkuud4yuOX-hljs6oN-95" value="" style="group;strokeWidth=2;" vertex="1" connectable="0" parent="1">
          <mxGeometry x="409" y="620" width="61" height="50" as="geometry" />
        </mxCell>
        <mxCell id="J4dkuud4yuOX-hljs6oN-96" value="" style="endArrow=none;html=1;rounded=0;strokeWidth=2;" edge="1" parent="J4dkuud4yuOX-hljs6oN-95">
          <mxGeometry width="50" height="50" relative="1" as="geometry">
            <mxPoint x="30" y="32" as="sourcePoint" />
            <mxPoint x="30" as="targetPoint" />
          </mxGeometry>
        </mxCell>
        <mxCell id="J4dkuud4yuOX-hljs6oN-97" value="" style="endArrow=none;html=1;rounded=0;strokeWidth=2;" edge="1" parent="J4dkuud4yuOX-hljs6oN-95">
          <mxGeometry width="50" height="50" relative="1" as="geometry">
            <mxPoint y="32.352941176470594" as="sourcePoint" />
            <mxPoint x="61" y="32.352941176470594" as="targetPoint" />
          </mxGeometry>
        </mxCell>
        <mxCell id="J4dkuud4yuOX-hljs6oN-98" value="" style="endArrow=none;html=1;rounded=0;strokeWidth=2;" edge="1" parent="J4dkuud4yuOX-hljs6oN-95">
          <mxGeometry width="50" height="50" relative="1" as="geometry">
            <mxPoint x="6.1" y="41.1764705882353" as="sourcePoint" />
            <mxPoint x="54.9" y="41.1764705882353" as="targetPoint" />
          </mxGeometry>
        </mxCell>
        <mxCell id="J4dkuud4yuOX-hljs6oN-99" value="" style="endArrow=none;html=1;rounded=0;strokeWidth=2;" edge="1" parent="J4dkuud4yuOX-hljs6oN-95">
          <mxGeometry width="50" height="50" relative="1" as="geometry">
            <mxPoint x="12.2" y="50" as="sourcePoint" />
            <mxPoint x="48.8" y="50" as="targetPoint" />
          </mxGeometry>
        </mxCell>
        <mxCell id="J4dkuud4yuOX-hljs6oN-120" value="" style="group;strokeWidth=2;" vertex="1" connectable="0" parent="1">
          <mxGeometry x="503" y="165" width="126" height="105" as="geometry" />
        </mxCell>
        <mxCell id="J4dkuud4yuOX-hljs6oN-121" value="" style="whiteSpace=wrap;html=1;aspect=fixed;fillColor=#000000;strokeWidth=2;" vertex="1" parent="J4dkuud4yuOX-hljs6oN-120">
          <mxGeometry y="85" width="20" height="20" as="geometry" />
        </mxCell>
        <mxCell id="J4dkuud4yuOX-hljs6oN-122" value="" style="endArrow=none;html=1;rounded=0;strokeWidth=2;" edge="1" parent="J4dkuud4yuOX-hljs6oN-120">
          <mxGeometry width="50" height="50" relative="1" as="geometry">
            <mxPoint x="9.409999999999968" y="85" as="sourcePoint" />
            <mxPoint x="9" y="15" as="targetPoint" />
          </mxGeometry>
        </mxCell>
        <mxCell id="J4dkuud4yuOX-hljs6oN-123" value="" style="endArrow=none;html=1;rounded=0;strokeWidth=2;" edge="1" parent="J4dkuud4yuOX-hljs6oN-120">
          <mxGeometry width="50" height="50" relative="1" as="geometry">
            <mxPoint x="9" y="15" as="sourcePoint" />
            <mxPoint x="56" y="15" as="targetPoint" />
          </mxGeometry>
        </mxCell>
        <mxCell id="J4dkuud4yuOX-hljs6oN-124" value="" style="shape=offPageConnector;whiteSpace=wrap;html=1;direction=north;size=0.2;fillColor=none;strokeWidth=2;" vertex="1" parent="J4dkuud4yuOX-hljs6oN-120">
          <mxGeometry x="56" width="70" height="30" as="geometry" />
        </mxCell>
        <mxCell id="J4dkuud4yuOX-hljs6oN-125" value="" style="group;strokeWidth=2;" vertex="1" connectable="0" parent="1">
          <mxGeometry x="865" y="165" width="126" height="105" as="geometry" />
        </mxCell>
        <mxCell id="J4dkuud4yuOX-hljs6oN-126" value="" style="whiteSpace=wrap;html=1;aspect=fixed;fillColor=#000000;strokeWidth=2;" vertex="1" parent="J4dkuud4yuOX-hljs6oN-125">
          <mxGeometry y="85" width="20" height="20" as="geometry" />
        </mxCell>
        <mxCell id="J4dkuud4yuOX-hljs6oN-127" value="" style="endArrow=none;html=1;rounded=0;strokeWidth=2;" edge="1" parent="J4dkuud4yuOX-hljs6oN-125">
          <mxGeometry width="50" height="50" relative="1" as="geometry">
            <mxPoint x="9.409999999999968" y="85" as="sourcePoint" />
            <mxPoint x="9" y="15" as="targetPoint" />
          </mxGeometry>
        </mxCell>
        <mxCell id="J4dkuud4yuOX-hljs6oN-128" value="" style="endArrow=none;html=1;rounded=0;strokeWidth=2;" edge="1" parent="J4dkuud4yuOX-hljs6oN-125">
          <mxGeometry width="50" height="50" relative="1" as="geometry">
            <mxPoint x="9" y="15" as="sourcePoint" />
            <mxPoint x="56" y="15" as="targetPoint" />
          </mxGeometry>
        </mxCell>
        <mxCell id="J4dkuud4yuOX-hljs6oN-129" value="" style="shape=offPageConnector;whiteSpace=wrap;html=1;direction=north;size=0.2;fillColor=none;strokeWidth=2;" vertex="1" parent="J4dkuud4yuOX-hljs6oN-125">
          <mxGeometry x="56" width="70" height="30" as="geometry" />
        </mxCell>
        <mxCell id="J4dkuud4yuOX-hljs6oN-154" value="" style="group;strokeWidth=2;" vertex="1" connectable="0" parent="1">
          <mxGeometry x="-39" y="165" width="376" height="455" as="geometry" />
        </mxCell>
        <mxCell id="J4dkuud4yuOX-hljs6oN-46" value="" style="group;strokeWidth=2;" vertex="1" connectable="0" parent="J4dkuud4yuOX-hljs6oN-154">
          <mxGeometry y="175" width="376" height="280" as="geometry" />
        </mxCell>
        <mxCell id="5TOxv1P_r4SnyT6bm7mD-9" value="" style="group;strokeWidth=2;" parent="J4dkuud4yuOX-hljs6oN-46" vertex="1" connectable="0">
          <mxGeometry x="70" width="170" height="60" as="geometry" />
        </mxCell>
        <mxCell id="5TOxv1P_r4SnyT6bm7mD-2" value="" style="endArrow=classic;html=1;rounded=0;endFill=1;strokeWidth=2;" parent="5TOxv1P_r4SnyT6bm7mD-9" edge="1">
          <mxGeometry width="50" height="50" relative="1" as="geometry">
            <mxPoint x="60" as="sourcePoint" />
            <mxPoint x="90" as="targetPoint" />
          </mxGeometry>
        </mxCell>
        <mxCell id="5TOxv1P_r4SnyT6bm7mD-3" value="" style="endArrow=none;html=1;rounded=0;strokeWidth=2;" parent="5TOxv1P_r4SnyT6bm7mD-9" edge="1">
          <mxGeometry width="50" height="50" relative="1" as="geometry">
            <mxPoint x="89" as="sourcePoint" />
            <mxPoint x="109" as="targetPoint" />
          </mxGeometry>
        </mxCell>
        <mxCell id="5TOxv1P_r4SnyT6bm7mD-4" value="" style="endArrow=none;html=1;rounded=0;strokeWidth=2;" parent="5TOxv1P_r4SnyT6bm7mD-9" edge="1">
          <mxGeometry width="50" height="50" relative="1" as="geometry">
            <mxPoint x="60" y="60" as="sourcePoint" />
            <mxPoint x="60" as="targetPoint" />
          </mxGeometry>
        </mxCell>
        <mxCell id="5TOxv1P_r4SnyT6bm7mD-5" value="" style="endArrow=none;html=1;rounded=0;strokeWidth=2;" parent="5TOxv1P_r4SnyT6bm7mD-9" edge="1">
          <mxGeometry width="50" height="50" relative="1" as="geometry">
            <mxPoint x="109" y="60" as="sourcePoint" />
            <mxPoint x="109" as="targetPoint" />
          </mxGeometry>
        </mxCell>
        <mxCell id="5TOxv1P_r4SnyT6bm7mD-7" value="" style="endArrow=none;html=1;rounded=0;strokeWidth=2;" parent="5TOxv1P_r4SnyT6bm7mD-9" edge="1">
          <mxGeometry width="50" height="50" relative="1" as="geometry">
            <mxPoint y="60" as="sourcePoint" />
            <mxPoint x="60" y="60" as="targetPoint" />
          </mxGeometry>
        </mxCell>
        <mxCell id="5TOxv1P_r4SnyT6bm7mD-8" value="" style="endArrow=none;html=1;rounded=0;strokeWidth=2;" parent="5TOxv1P_r4SnyT6bm7mD-9" edge="1">
          <mxGeometry width="50" height="50" relative="1" as="geometry">
            <mxPoint x="110" y="60" as="sourcePoint" />
            <mxPoint x="170" y="60" as="targetPoint" />
          </mxGeometry>
        </mxCell>
        <mxCell id="5TOxv1P_r4SnyT6bm7mD-1" value="" style="rounded=1;whiteSpace=wrap;html=1;fillColor=none;strokeWidth=2;" parent="5TOxv1P_r4SnyT6bm7mD-9" vertex="1">
          <mxGeometry x="30" y="-70" width="110" height="100" as="geometry" />
        </mxCell>
        <mxCell id="5TOxv1P_r4SnyT6bm7mD-24" value="" style="group;strokeWidth=2;" parent="J4dkuud4yuOX-hljs6oN-46" vertex="1" connectable="0">
          <mxGeometry x="80" y="120" width="296" height="100" as="geometry" />
        </mxCell>
        <mxCell id="5TOxv1P_r4SnyT6bm7mD-19" value="" style="rounded=1;whiteSpace=wrap;html=1;fillColor=none;strokeWidth=2;" parent="5TOxv1P_r4SnyT6bm7mD-24" vertex="1">
          <mxGeometry x="50" width="110" height="100" as="geometry" />
        </mxCell>
        <mxCell id="5TOxv1P_r4SnyT6bm7mD-20" value="" style="endArrow=none;html=1;rounded=0;strokeWidth=2;" parent="5TOxv1P_r4SnyT6bm7mD-24" edge="1">
          <mxGeometry width="50" height="50" relative="1" as="geometry">
            <mxPoint y="20" as="sourcePoint" />
            <mxPoint x="90" y="20" as="targetPoint" />
          </mxGeometry>
        </mxCell>
        <mxCell id="5TOxv1P_r4SnyT6bm7mD-21" value="" style="endArrow=none;html=1;rounded=0;strokeWidth=2;" parent="5TOxv1P_r4SnyT6bm7mD-24" edge="1">
          <mxGeometry width="50" height="50" relative="1" as="geometry">
            <mxPoint y="80" as="sourcePoint" />
            <mxPoint x="90" y="80" as="targetPoint" />
          </mxGeometry>
        </mxCell>
        <mxCell id="5TOxv1P_r4SnyT6bm7mD-22" value="&lt;font style=&quot;font-size: 24px;&quot;&gt;+&lt;/font&gt;" style="text;html=1;strokeColor=none;fillColor=none;align=center;verticalAlign=middle;whiteSpace=wrap;rounded=0;strokeWidth=2;" parent="5TOxv1P_r4SnyT6bm7mD-24" vertex="1">
          <mxGeometry x="82" y="5" width="60" height="30" as="geometry" />
        </mxCell>
        <mxCell id="5TOxv1P_r4SnyT6bm7mD-23" value="&lt;font style=&quot;font-size: 24px;&quot;&gt;_&lt;/font&gt;" style="text;html=1;strokeColor=none;fillColor=none;align=center;verticalAlign=middle;whiteSpace=wrap;rounded=0;strokeWidth=2;" parent="5TOxv1P_r4SnyT6bm7mD-24" vertex="1">
          <mxGeometry x="82" y="53" width="60" height="30" as="geometry" />
        </mxCell>
        <mxCell id="J4dkuud4yuOX-hljs6oN-155" value="" style="group;strokeWidth=2;" vertex="1" connectable="0" parent="5TOxv1P_r4SnyT6bm7mD-24">
          <mxGeometry x="160" y="35" width="136" height="30" as="geometry" />
        </mxCell>
        <mxCell id="J4dkuud4yuOX-hljs6oN-156" value="" style="whiteSpace=wrap;html=1;aspect=fixed;fillColor=#000000;strokeWidth=2;" vertex="1" parent="J4dkuud4yuOX-hljs6oN-155">
          <mxGeometry y="6" width="20" height="20" as="geometry" />
        </mxCell>
        <mxCell id="J4dkuud4yuOX-hljs6oN-157" value="" style="endArrow=none;html=1;rounded=0;strokeWidth=2;" edge="1" parent="J4dkuud4yuOX-hljs6oN-155">
          <mxGeometry width="50" height="50" relative="1" as="geometry">
            <mxPoint x="19" y="15" as="sourcePoint" />
            <mxPoint x="66" y="15" as="targetPoint" />
          </mxGeometry>
        </mxCell>
        <mxCell id="J4dkuud4yuOX-hljs6oN-158" value="" style="shape=offPageConnector;whiteSpace=wrap;html=1;direction=north;size=0.2;fillColor=none;container=0;strokeWidth=2;" vertex="1" parent="J4dkuud4yuOX-hljs6oN-155">
          <mxGeometry x="66" width="70" height="30" as="geometry" />
        </mxCell>
        <mxCell id="J4dkuud4yuOX-hljs6oN-32" value="" style="group;strokeWidth=2;" vertex="1" connectable="0" parent="J4dkuud4yuOX-hljs6oN-46">
          <mxGeometry x="240" y="45" width="80" height="30" as="geometry" />
        </mxCell>
        <mxCell id="J4dkuud4yuOX-hljs6oN-1" value="" style="ellipse;whiteSpace=wrap;html=1;aspect=fixed;strokeWidth=2;" vertex="1" parent="J4dkuud4yuOX-hljs6oN-32">
          <mxGeometry x="50" width="30" height="30" as="geometry" />
        </mxCell>
        <mxCell id="J4dkuud4yuOX-hljs6oN-2" value="" style="endArrow=none;html=1;rounded=0;strokeWidth=2;" edge="1" parent="J4dkuud4yuOX-hljs6oN-32">
          <mxGeometry width="50" height="50" relative="1" as="geometry">
            <mxPoint y="15" as="sourcePoint" />
            <mxPoint x="50" y="15" as="targetPoint" />
          </mxGeometry>
        </mxCell>
        <mxCell id="J4dkuud4yuOX-hljs6oN-35" value="" style="group;strokeWidth=2;" vertex="1" connectable="0" parent="J4dkuud4yuOX-hljs6oN-46">
          <mxGeometry y="125" width="80" height="30" as="geometry" />
        </mxCell>
        <mxCell id="J4dkuud4yuOX-hljs6oN-33" value="" style="ellipse;whiteSpace=wrap;html=1;aspect=fixed;strokeWidth=2;" vertex="1" parent="J4dkuud4yuOX-hljs6oN-35">
          <mxGeometry width="30" height="30" as="geometry" />
        </mxCell>
        <mxCell id="J4dkuud4yuOX-hljs6oN-34" value="" style="endArrow=none;html=1;rounded=0;strokeWidth=2;" edge="1" parent="J4dkuud4yuOX-hljs6oN-35">
          <mxGeometry width="50" height="50" relative="1" as="geometry">
            <mxPoint x="30" y="15" as="sourcePoint" />
            <mxPoint x="80" y="15" as="targetPoint" />
          </mxGeometry>
        </mxCell>
        <mxCell id="J4dkuud4yuOX-hljs6oN-40" value="" style="endArrow=none;html=1;rounded=0;strokeWidth=2;" edge="1" parent="J4dkuud4yuOX-hljs6oN-46">
          <mxGeometry width="50" height="50" relative="1" as="geometry">
            <mxPoint x="70" y="140" as="sourcePoint" />
            <mxPoint x="70" y="60" as="targetPoint" />
          </mxGeometry>
        </mxCell>
        <mxCell id="J4dkuud4yuOX-hljs6oN-44" value="" style="endArrow=none;html=1;rounded=0;strokeWidth=2;" edge="1" parent="J4dkuud4yuOX-hljs6oN-46">
          <mxGeometry width="50" height="50" relative="1" as="geometry">
            <mxPoint x="80" y="280" as="sourcePoint" />
            <mxPoint x="80" y="200" as="targetPoint" />
          </mxGeometry>
        </mxCell>
        <mxCell id="J4dkuud4yuOX-hljs6oN-115" value="" style="group;strokeWidth=2;" vertex="1" connectable="0" parent="J4dkuud4yuOX-hljs6oN-154">
          <mxGeometry x="145" width="126" height="105" as="geometry" />
        </mxCell>
        <mxCell id="J4dkuud4yuOX-hljs6oN-116" value="" style="whiteSpace=wrap;html=1;aspect=fixed;fillColor=#000000;strokeWidth=2;" vertex="1" parent="J4dkuud4yuOX-hljs6oN-115">
          <mxGeometry y="85" width="20" height="20" as="geometry" />
        </mxCell>
        <mxCell id="J4dkuud4yuOX-hljs6oN-117" value="" style="endArrow=none;html=1;rounded=0;strokeWidth=2;" edge="1" parent="J4dkuud4yuOX-hljs6oN-115">
          <mxGeometry width="50" height="50" relative="1" as="geometry">
            <mxPoint x="9.409999999999968" y="85" as="sourcePoint" />
            <mxPoint x="9" y="15" as="targetPoint" />
          </mxGeometry>
        </mxCell>
        <mxCell id="J4dkuud4yuOX-hljs6oN-118" value="" style="endArrow=none;html=1;rounded=0;strokeWidth=2;" edge="1" parent="J4dkuud4yuOX-hljs6oN-115">
          <mxGeometry width="50" height="50" relative="1" as="geometry">
            <mxPoint x="9" y="15" as="sourcePoint" />
            <mxPoint x="56" y="15" as="targetPoint" />
          </mxGeometry>
        </mxCell>
        <mxCell id="J4dkuud4yuOX-hljs6oN-119" value="" style="shape=offPageConnector;whiteSpace=wrap;html=1;direction=north;size=0.2;fillColor=none;strokeWidth=2;" vertex="1" parent="J4dkuud4yuOX-hljs6oN-115">
          <mxGeometry x="56" width="70" height="30" as="geometry" />
        </mxCell>
        <mxCell id="J4dkuud4yuOX-hljs6oN-188" value="" style="group;rotation=-90;strokeWidth=2;" vertex="1" connectable="0" parent="1">
          <mxGeometry x="420" y="796" width="202" height="113.5" as="geometry" />
        </mxCell>
        <mxCell id="J4dkuud4yuOX-hljs6oN-187" value="" style="group;strokeWidth=2;" vertex="1" connectable="0" parent="J4dkuud4yuOX-hljs6oN-188">
          <mxGeometry x="-170" y="-16.5" width="372" height="130" as="geometry" />
        </mxCell>
        <mxCell id="J4dkuud4yuOX-hljs6oN-170" value="" style="rounded=1;whiteSpace=wrap;html=1;strokeWidth=2;" vertex="1" parent="J4dkuud4yuOX-hljs6oN-187">
          <mxGeometry x="66" width="274" height="130" as="geometry" />
        </mxCell>
        <mxCell id="J4dkuud4yuOX-hljs6oN-171" value="" style="endArrow=none;html=1;rounded=0;strokeWidth=2;" edge="1" parent="J4dkuud4yuOX-hljs6oN-187">
          <mxGeometry width="50" height="50" relative="1" as="geometry">
            <mxPoint x="6" y="30" as="sourcePoint" />
            <mxPoint x="66" y="30" as="targetPoint" />
          </mxGeometry>
        </mxCell>
        <mxCell id="J4dkuud4yuOX-hljs6oN-172" value="" style="endArrow=none;html=1;rounded=0;strokeWidth=2;" edge="1" parent="J4dkuud4yuOX-hljs6oN-187">
          <mxGeometry width="50" height="50" relative="1" as="geometry">
            <mxPoint x="6" y="65.5" as="sourcePoint" />
            <mxPoint x="66" y="65.5" as="targetPoint" />
          </mxGeometry>
        </mxCell>
        <mxCell id="J4dkuud4yuOX-hljs6oN-173" value="" style="endArrow=none;html=1;rounded=0;strokeWidth=2;" edge="1" parent="J4dkuud4yuOX-hljs6oN-187">
          <mxGeometry width="50" height="50" relative="1" as="geometry">
            <mxPoint x="6" y="100" as="sourcePoint" />
            <mxPoint x="66" y="100" as="targetPoint" />
          </mxGeometry>
        </mxCell>
        <mxCell id="J4dkuud4yuOX-hljs6oN-174" value="" style="endArrow=none;html=1;rounded=0;strokeWidth=2;" edge="1" parent="J4dkuud4yuOX-hljs6oN-187">
          <mxGeometry width="50" height="50" relative="1" as="geometry">
            <mxPoint x="339" y="29.5" as="sourcePoint" />
            <mxPoint x="399" y="29.5" as="targetPoint" />
          </mxGeometry>
        </mxCell>
        <mxCell id="J4dkuud4yuOX-hljs6oN-175" value="" style="endArrow=none;html=1;rounded=0;strokeWidth=2;" edge="1" parent="J4dkuud4yuOX-hljs6oN-187">
          <mxGeometry width="50" height="50" relative="1" as="geometry">
            <mxPoint x="339" y="64" as="sourcePoint" />
            <mxPoint x="399" y="64" as="targetPoint" />
          </mxGeometry>
        </mxCell>
        <mxCell id="J4dkuud4yuOX-hljs6oN-176" value="" style="endArrow=none;html=1;rounded=0;strokeWidth=2;" edge="1" parent="J4dkuud4yuOX-hljs6oN-187">
          <mxGeometry width="50" height="50" relative="1" as="geometry">
            <mxPoint x="339" y="99.5" as="sourcePoint" />
            <mxPoint x="399" y="99.5" as="targetPoint" />
          </mxGeometry>
        </mxCell>
        <mxCell id="J4dkuud4yuOX-hljs6oN-177" value="" style="whiteSpace=wrap;html=1;aspect=fixed;fillColor=#EA6B66;strokeColor=#EA6B66;strokeWidth=2;" vertex="1" parent="J4dkuud4yuOX-hljs6oN-187">
          <mxGeometry x="1" y="27" width="6" height="6" as="geometry" />
        </mxCell>
        <mxCell id="J4dkuud4yuOX-hljs6oN-178" value="" style="whiteSpace=wrap;html=1;aspect=fixed;fillColor=#EA6B66;strokeColor=#EA6B66;strokeWidth=2;" vertex="1" parent="J4dkuud4yuOX-hljs6oN-187">
          <mxGeometry x="1" y="62" width="6" height="6" as="geometry" />
        </mxCell>
        <mxCell id="J4dkuud4yuOX-hljs6oN-179" value="" style="whiteSpace=wrap;html=1;aspect=fixed;fillColor=#EA6B66;strokeColor=#EA6B66;strokeWidth=2;" vertex="1" parent="J4dkuud4yuOX-hljs6oN-187">
          <mxGeometry y="97" width="6" height="6" as="geometry" />
        </mxCell>
        <mxCell id="J4dkuud4yuOX-hljs6oN-180" value="" style="whiteSpace=wrap;html=1;aspect=fixed;fillColor=#EA6B66;strokeColor=#EA6B66;strokeWidth=2;" vertex="1" parent="J4dkuud4yuOX-hljs6oN-187">
          <mxGeometry x="399" y="26" width="6" height="6" as="geometry" />
        </mxCell>
        <mxCell id="J4dkuud4yuOX-hljs6oN-181" value="" style="whiteSpace=wrap;html=1;aspect=fixed;fillColor=#EA6B66;strokeColor=#EA6B66;strokeWidth=2;" vertex="1" parent="J4dkuud4yuOX-hljs6oN-187">
          <mxGeometry x="399" y="61" width="6" height="6" as="geometry" />
        </mxCell>
        <mxCell id="J4dkuud4yuOX-hljs6oN-182" value="" style="whiteSpace=wrap;html=1;aspect=fixed;fillColor=#EA6B66;strokeColor=#EA6B66;strokeWidth=2;" vertex="1" parent="J4dkuud4yuOX-hljs6oN-187">
          <mxGeometry x="398" y="96" width="6" height="6" as="geometry" />
        </mxCell>
        <mxCell id="J4dkuud4yuOX-hljs6oN-192" value="" style="edgeStyle=orthogonalEdgeStyle;rounded=0;orthogonalLoop=1;jettySize=auto;html=1;strokeWidth=2;" edge="1" parent="J4dkuud4yuOX-hljs6oN-188" source="J4dkuud4yuOX-hljs6oN-189">
          <mxGeometry relative="1" as="geometry">
            <mxPoint x="-72.00000000000045" y="-83.5" as="targetPoint" />
          </mxGeometry>
        </mxCell>
        <mxCell id="J4dkuud4yuOX-hljs6oN-189" value="" style="whiteSpace=wrap;html=1;aspect=fixed;fillColor=#000000;rotation=-90;strokeWidth=2;" vertex="1" parent="J4dkuud4yuOX-hljs6oN-188">
          <mxGeometry x="-81" y="-37.5" width="20" height="20" as="geometry" />
        </mxCell>
        <mxCell id="J4dkuud4yuOX-hljs6oN-190" value="" style="endArrow=none;html=1;rounded=0;strokeWidth=2;" edge="1" parent="J4dkuud4yuOX-hljs6oN-188">
          <mxGeometry width="50" height="50" relative="1" as="geometry">
            <mxPoint x="-72" y="-36.5" as="sourcePoint" />
            <mxPoint x="-72" y="-83.5" as="targetPoint" />
          </mxGeometry>
        </mxCell>
        <mxCell id="J4dkuud4yuOX-hljs6oN-194" value="" style="edgeStyle=orthogonalEdgeStyle;rounded=0;orthogonalLoop=1;jettySize=auto;html=1;strokeWidth=2;" edge="1" parent="J4dkuud4yuOX-hljs6oN-188" source="J4dkuud4yuOX-hljs6oN-195">
          <mxGeometry relative="1" as="geometry">
            <mxPoint x="-32.000000000000455" y="-83.5" as="targetPoint" />
          </mxGeometry>
        </mxCell>
        <mxCell id="J4dkuud4yuOX-hljs6oN-195" value="" style="whiteSpace=wrap;html=1;aspect=fixed;fillColor=#000000;rotation=-90;strokeWidth=2;" vertex="1" parent="J4dkuud4yuOX-hljs6oN-188">
          <mxGeometry x="-41" y="-37.5" width="20" height="20" as="geometry" />
        </mxCell>
        <mxCell id="J4dkuud4yuOX-hljs6oN-196" value="" style="endArrow=none;html=1;rounded=0;strokeWidth=2;" edge="1" parent="J4dkuud4yuOX-hljs6oN-188">
          <mxGeometry width="50" height="50" relative="1" as="geometry">
            <mxPoint x="-32" y="-36.5" as="sourcePoint" />
            <mxPoint x="-32" y="-83.5" as="targetPoint" />
          </mxGeometry>
        </mxCell>
        <mxCell id="J4dkuud4yuOX-hljs6oN-198" value="" style="edgeStyle=orthogonalEdgeStyle;rounded=0;orthogonalLoop=1;jettySize=auto;html=1;strokeWidth=2;" edge="1" parent="J4dkuud4yuOX-hljs6oN-188" source="J4dkuud4yuOX-hljs6oN-199">
          <mxGeometry relative="1" as="geometry">
            <mxPoint x="7.999999999999545" y="-82.5" as="targetPoint" />
          </mxGeometry>
        </mxCell>
        <mxCell id="J4dkuud4yuOX-hljs6oN-199" value="" style="whiteSpace=wrap;html=1;aspect=fixed;fillColor=#000000;rotation=-90;strokeWidth=2;" vertex="1" parent="J4dkuud4yuOX-hljs6oN-188">
          <mxGeometry x="-1" y="-36.5" width="20" height="20" as="geometry" />
        </mxCell>
        <mxCell id="J4dkuud4yuOX-hljs6oN-200" value="" style="endArrow=none;html=1;rounded=0;strokeWidth=2;" edge="1" parent="J4dkuud4yuOX-hljs6oN-188">
          <mxGeometry width="50" height="50" relative="1" as="geometry">
            <mxPoint x="8" y="-35.5" as="sourcePoint" />
            <mxPoint x="8" y="-82.5" as="targetPoint" />
          </mxGeometry>
        </mxCell>
        <mxCell id="J4dkuud4yuOX-hljs6oN-202" value="" style="edgeStyle=orthogonalEdgeStyle;rounded=0;orthogonalLoop=1;jettySize=auto;html=1;strokeWidth=2;" edge="1" parent="J4dkuud4yuOX-hljs6oN-188" source="J4dkuud4yuOX-hljs6oN-203">
          <mxGeometry relative="1" as="geometry">
            <mxPoint x="47.999999999999545" y="-82.5" as="targetPoint" />
          </mxGeometry>
        </mxCell>
        <mxCell id="J4dkuud4yuOX-hljs6oN-203" value="" style="whiteSpace=wrap;html=1;aspect=fixed;fillColor=#000000;rotation=-90;strokeWidth=2;" vertex="1" parent="J4dkuud4yuOX-hljs6oN-188">
          <mxGeometry x="39" y="-36.5" width="20" height="20" as="geometry" />
        </mxCell>
        <mxCell id="J4dkuud4yuOX-hljs6oN-204" value="" style="endArrow=none;html=1;rounded=0;strokeWidth=2;" edge="1" parent="J4dkuud4yuOX-hljs6oN-188">
          <mxGeometry width="50" height="50" relative="1" as="geometry">
            <mxPoint x="48" y="-35.5" as="sourcePoint" />
            <mxPoint x="48" y="-82.5" as="targetPoint" />
          </mxGeometry>
        </mxCell>
        <mxCell id="J4dkuud4yuOX-hljs6oN-206" value="" style="edgeStyle=orthogonalEdgeStyle;rounded=0;orthogonalLoop=1;jettySize=auto;html=1;strokeWidth=2;" edge="1" parent="J4dkuud4yuOX-hljs6oN-188" source="J4dkuud4yuOX-hljs6oN-207">
          <mxGeometry relative="1" as="geometry">
            <mxPoint x="88.99999999999955" y="-82.5" as="targetPoint" />
          </mxGeometry>
        </mxCell>
        <mxCell id="J4dkuud4yuOX-hljs6oN-207" value="" style="whiteSpace=wrap;html=1;aspect=fixed;fillColor=#000000;rotation=-90;strokeWidth=2;" vertex="1" parent="J4dkuud4yuOX-hljs6oN-188">
          <mxGeometry x="80" y="-36.5" width="20" height="20" as="geometry" />
        </mxCell>
        <mxCell id="J4dkuud4yuOX-hljs6oN-208" value="" style="endArrow=none;html=1;rounded=0;strokeWidth=2;" edge="1" parent="J4dkuud4yuOX-hljs6oN-188">
          <mxGeometry width="50" height="50" relative="1" as="geometry">
            <mxPoint x="89" y="-35.5" as="sourcePoint" />
            <mxPoint x="89" y="-82.5" as="targetPoint" />
          </mxGeometry>
        </mxCell>
        <mxCell id="J4dkuud4yuOX-hljs6oN-210" value="" style="edgeStyle=orthogonalEdgeStyle;rounded=0;orthogonalLoop=1;jettySize=auto;html=1;strokeWidth=2;" edge="1" parent="J4dkuud4yuOX-hljs6oN-188" source="J4dkuud4yuOX-hljs6oN-211">
          <mxGeometry relative="1" as="geometry">
            <mxPoint x="128.99999999999955" y="-82.5" as="targetPoint" />
          </mxGeometry>
        </mxCell>
        <mxCell id="J4dkuud4yuOX-hljs6oN-211" value="" style="whiteSpace=wrap;html=1;aspect=fixed;fillColor=#000000;rotation=-90;strokeWidth=2;" vertex="1" parent="J4dkuud4yuOX-hljs6oN-188">
          <mxGeometry x="120" y="-36.5" width="20" height="20" as="geometry" />
        </mxCell>
        <mxCell id="J4dkuud4yuOX-hljs6oN-212" value="" style="endArrow=none;html=1;rounded=0;strokeWidth=2;" edge="1" parent="J4dkuud4yuOX-hljs6oN-188">
          <mxGeometry width="50" height="50" relative="1" as="geometry">
            <mxPoint x="129" y="-35.5" as="sourcePoint" />
            <mxPoint x="129" y="-82.5" as="targetPoint" />
          </mxGeometry>
        </mxCell>
      </root>
    </mxGraphModel>
  </diagram>
</mxfile>
